<svg xmlns="http://www.w3.org/2000/svg" viewBox="0 0 100 100"><path d="M87 53.3L46.9 13.2c-.2-.2-.5-.4-.8-.5s-.6-.2-1-.2h-18c-.3 0-.6.1-1 .2-.3.1-.6.3-.8.5L13 25.6c-.2.2-.4.5-.5.8s-.2.6-.2 1V63c0 .2.1.4.1.6 0 .1 0 .3.1.4.1.1.2.2.3.4.1.1.2.3.3.4s.2.1.3.2c.2.1.3.3.5.3l58 22.1h.1c.3.1.6.2.9.2s.6-.1.8-.2h.1c.1 0 .1-.1.2-.1.2-.1.4-.2.5-.3l.1-.1L87 74.4c.2-.2.4-.5.5-.8s.2-.6.2-1V55.1c0-.3-.1-.7-.2-1s-.3-.6-.5-.8zm-4.3 18.3L75.3 79V68.5l7.4-7.4v10.5zM28.2 17.5h15.9l37.6 37.6-9.5 9.5-54.9-21.2v-15l10.9-10.9zM17.3 48.8l53 20.4v12.2l-53-20.2V48.8zm11.5-8.7l6.2-6.2-4.9-3.4c-1.1-.8-1.4-2.3-.6-3.5.8-1.1 2.3-1.4 3.5-.6l5.6 3.9 5.3-5.3c1-1 2.6-1 3.5 0s1 2.6 0 3.5l-4.6 4.6 19.6 13.5c1.1.8 1.4 2.3.6 3.5-.5.7-1.2 1.1-2.1 1.1-.5 0-1-.1-1.4-.4l-20.3-14-6.9 6.9c-1 1-2.6 1-3.5 0-1-1-1-2.6 0-3.6z"/></svg>