<svg xmlns="http://www.w3.org/2000/svg" viewBox="0 0 100 100"><path d="M61.6 23.1c-5.1-5.1-12-8-19.3-8s-14.1 2.8-19.3 8C12.4 33.7 12.4 51 23 61.6c5.1 5.1 12 8 19.3 8 3.3 0 6.6-.6 9.6-1.8l13.7 13.8c2.1 2.1 5 3.3 8 3.3s5.8-1.2 8-3.3c2.1-2.1 3.3-5 3.3-8s-1.2-5.8-3.3-7.9L67.8 51.9c1.1-3 1.7-6.3 1.7-9.5.1-7.3-2.8-14.2-7.9-19.3zm-35 35c-8.7-8.7-8.7-22.8 0-31.4 4.2-4.2 9.8-6.5 15.7-6.5s11.5 2.3 15.7 6.5 6.5 9.8 6.5 15.7-2.3 11.5-6.5 15.7-9.8 6.5-15.7 6.5-11.5-2.3-15.7-6.5zM78 69.2c1.2 1.2 1.8 2.8 1.8 4.4 0 1.7-.6 3.2-1.8 4.4-2.4 2.4-6.4 2.4-8.8 0L56.7 65.5c1.8-1.1 3.4-2.4 4.9-3.9s2.8-3.2 3.9-5L78 69.2zM55.3 29.4c-3.4-3.5-8.1-5.4-13-5.4s-9.5 1.9-13 5.4-5.4 8.1-5.4 13 1.9 9.5 5.4 13 8.1 5.4 13 5.4 9.5-1.9 13-5.4 5.4-8.1 5.4-13-1.9-9.6-5.4-13zm-3.5 22.4c-2.5 2.5-5.9 3.9-9.5 3.9-3.5 0-7-1.4-9.5-3.9s-3.9-5.9-3.9-9.5 1.4-6.9 3.9-9.5c2.5-2.5 5.9-3.9 9.5-3.9 3.5 0 6.9 1.4 9.5 3.9 2.5 2.5 3.9 5.9 3.9 9.5s-1.4 7-3.9 9.5zm-7-16.4c0 1.4-1.1 2.5-2.5 2.5-2.4 0-4.4 2-4.4 4.4 0 1.4-1.1 2.5-2.5 2.5s-2.5-1.1-2.5-2.5c0-5.2 4.2-9.4 9.4-9.4 1.4 0 2.5 1.2 2.5 2.5z"/></svg>