<svg xmlns="http://www.w3.org/2000/svg" viewBox="0 0 100 100"><path d="M50 16.5c-14.7 0-28.4 5.8-38.7 16.3-1 1-1 2.5 0 3.5 9.3 9.5 21.6 15.1 34.7 16.1l-8.6 17.3v.1c-.1.1-.1.3-.1.5s-.1.3-.1.5v.1C37.2 78 43 83.7 50 83.7s12.8-5.8 12.8-12.8v-.1c0-.2-.1-.3-.1-.5s-.1-.3-.1-.5v-.1L54 52.3c13.2-.9 25.4-6.5 34.7-16.1 1-1 1-2.5 0-3.5-10.3-10.5-24-16.2-38.7-16.2zm0 31c-2.4 0-4.8-.2-7.1-.6 1.2-2.8 4-4.8 7.2-4.8s6 1.9 7.2 4.8c-2.4.4-4.8.6-7.3.6zm.1-10.4c-5.5 0-10.5 3.5-12.2 8.8-1.7-.4-3.4-.9-5.1-1.6 2.4-7.4 9.3-12.5 17.2-12.5S64.8 37 67.2 44.3c-1.7.6-3.3 1.1-5.1 1.6-1.6-5.2-6.5-8.8-12-8.8zM50 78.5c-4.2 0-7.5-3.3-7.8-7.4L50 55.6l7.8 15.6c-.3 4.1-3.6 7.3-7.8 7.3zm21.9-36.1C68.7 33.2 60 26.8 50.1 26.8s-18.7 6.4-21.8 15.6c-4.2-2.1-8.1-4.7-11.5-7.9 9.1-8.4 20.8-13 33.3-13s24.2 4.6 33.3 13c-3.5 3.1-7.4 5.8-11.5 7.9z"/></svg>