<svg xmlns="http://www.w3.org/2000/svg"><symbol id="symbol-coffin" viewBox="0 0 100 100"><path d="M87 53.3L46.9 13.2c-.2-.2-.5-.4-.8-.5s-.6-.2-1-.2h-18c-.3 0-.6.1-1 .2-.3.1-.6.3-.8.5L13 25.6c-.2.2-.4.5-.5.8s-.2.6-.2 1V63c0 .2.1.4.1.6 0 .1 0 .3.1.4.1.1.2.2.3.4.1.1.2.3.3.4s.2.1.3.2c.2.1.3.3.5.3l58 22.1h.1c.3.1.6.2.9.2s.6-.1.8-.2h.1c.1 0 .1-.1.2-.1.2-.1.4-.2.5-.3l.1-.1L87 74.4c.2-.2.4-.5.5-.8s.2-.6.2-1V55.1c0-.3-.1-.7-.2-1s-.3-.6-.5-.8zm-4.3 18.3L75.3 79V68.5l7.4-7.4v10.5zM28.2 17.5h15.9l37.6 37.6-9.5 9.5-54.9-21.2v-15l10.9-10.9zM17.3 48.8l53 20.4v12.2l-53-20.2V48.8zm11.5-8.7l6.2-6.2-4.9-3.4c-1.1-.8-1.4-2.3-.6-3.5.8-1.1 2.3-1.4 3.5-.6l5.6 3.9 5.3-5.3c1-1 2.6-1 3.5 0s1 2.6 0 3.5l-4.6 4.6 19.6 13.5c1.1.8 1.4 2.3.6 3.5-.5.7-1.2 1.1-2.1 1.1-.5 0-1-.1-1.4-.4l-20.3-14-6.9 6.9c-1 1-2.6 1-3.5 0-1-1-1-2.6 0-3.6z"/></symbol><symbol id="symbol-hourglass" viewBox="0 0 100 100"><path d="M67.6 19.1H32.4c-1.4 0-2.5 1.1-2.5 2.5v10.9c0 7.6 4.2 14.2 10.4 17.6-6.2 3.4-10.4 10-10.4 17.6v10.8c0 1 .6 1.9 1.5 2.3.3.1.6.2 1 .2h35.2c.3 0 .7-.1 1-.2.9-.4 1.5-1.3 1.5-2.3V67.7c0-7.6-4.2-14.2-10.4-17.6 6.2-3.4 10.4-10 10.4-17.6V21.6c0-1.4-1.1-2.5-2.5-2.5zm-32.7 5h30.2v8.4c0 1.3-.2 2.6-.5 3.8-3.8-4-9-6.3-14.6-6.3s-10.8 2.4-14.6 6.3c-.3-1.3-.5-2.5-.5-3.8v-8.4zM50 64.4L61.6 76H38.4L50 64.4zm-2.5-11.6v7L34.9 72.4v-4.7c0-7.5 5.5-13.7 12.6-14.9zm17.6 14.9v4.7L52.5 59.8v-7c7.1 1.2 12.6 7.4 12.6 14.9zM50 47.6c-5 0-9.5-2.5-12.2-6.3C40.6 37.4 45.1 35 50 35s9.4 2.4 12.2 6.3c-2.7 3.8-7.2 6.3-12.2 6.3z"/></symbol><symbol id="symbol-lens" viewBox="0 0 100 100"><path d="M61.6 23.1c-5.1-5.1-12-8-19.3-8s-14.1 2.8-19.3 8C12.4 33.7 12.4 51 23 61.6c5.1 5.1 12 8 19.3 8 3.3 0 6.6-.6 9.6-1.8l13.7 13.8c2.1 2.1 5 3.3 8 3.3s5.8-1.2 8-3.3c2.1-2.1 3.3-5 3.3-8s-1.2-5.8-3.3-7.9L67.8 51.9c1.1-3 1.7-6.3 1.7-9.5.1-7.3-2.8-14.2-7.9-19.3zm-35 35c-8.7-8.7-8.7-22.8 0-31.4 4.2-4.2 9.8-6.5 15.7-6.5s11.5 2.3 15.7 6.5 6.5 9.8 6.5 15.7-2.3 11.5-6.5 15.7-9.8 6.5-15.7 6.5-11.5-2.3-15.7-6.5zM78 69.2c1.2 1.2 1.8 2.8 1.8 4.4 0 1.7-.6 3.2-1.8 4.4-2.4 2.4-6.4 2.4-8.8 0L56.7 65.5c1.8-1.1 3.4-2.4 4.9-3.9s2.8-3.2 3.9-5L78 69.2zM55.3 29.4c-3.4-3.5-8.1-5.4-13-5.4s-9.5 1.9-13 5.4-5.4 8.1-5.4 13 1.9 9.5 5.4 13 8.1 5.4 13 5.4 9.5-1.9 13-5.4 5.4-8.1 5.4-13-1.9-9.6-5.4-13zm-3.5 22.4c-2.5 2.5-5.9 3.9-9.5 3.9-3.5 0-7-1.4-9.5-3.9s-3.9-5.9-3.9-9.5 1.4-6.9 3.9-9.5c2.5-2.5 5.9-3.9 9.5-3.9 3.5 0 6.9 1.4 9.5 3.9 2.5 2.5 3.9 5.9 3.9 9.5s-1.4 7-3.9 9.5zm-7-16.4c0 1.4-1.1 2.5-2.5 2.5-2.4 0-4.4 2-4.4 4.4 0 1.4-1.1 2.5-2.5 2.5s-2.5-1.1-2.5-2.5c0-5.2 4.2-9.4 9.4-9.4 1.4 0 2.5 1.2 2.5 2.5z"/></symbol><symbol id="symbol-sorrow" viewBox="0 0 100 100"><path d="M50 16.5c-14.7 0-28.4 5.8-38.7 16.3-1 1-1 2.5 0 3.5 9.3 9.5 21.6 15.1 34.7 16.1l-8.6 17.3v.1c-.1.1-.1.3-.1.5s-.1.3-.1.5v.1C37.2 78 43 83.7 50 83.7s12.8-5.8 12.8-12.8v-.1c0-.2-.1-.3-.1-.5s-.1-.3-.1-.5v-.1L54 52.3c13.2-.9 25.4-6.5 34.7-16.1 1-1 1-2.5 0-3.5-10.3-10.5-24-16.2-38.7-16.2zm0 31c-2.4 0-4.8-.2-7.1-.6 1.2-2.8 4-4.8 7.2-4.8s6 1.9 7.2 4.8c-2.4.4-4.8.6-7.3.6zm.1-10.4c-5.5 0-10.5 3.5-12.2 8.8-1.7-.4-3.4-.9-5.1-1.6 2.4-7.4 9.3-12.5 17.2-12.5S64.8 37 67.2 44.3c-1.7.6-3.3 1.1-5.1 1.6-1.6-5.2-6.5-8.8-12-8.8zM50 78.5c-4.2 0-7.5-3.3-7.8-7.4L50 55.6l7.8 15.6c-.3 4.1-3.6 7.3-7.8 7.3zm21.9-36.1C68.7 33.2 60 26.8 50.1 26.8s-18.7 6.4-21.8 15.6c-4.2-2.1-8.1-4.7-11.5-7.9 9.1-8.4 20.8-13 33.3-13s24.2 4.6 33.3 13c-3.5 3.1-7.4 5.8-11.5 7.9z"/></symbol></svg>